<svg width="472" height="162" viewBox="0 0 472 162" fill="none" xmlns="http://www.w3.org/2000/svg">
<path d="M417.449 5.59625C411.134 3.42689 404.64 2.07278 398.035 1.5408C394.415 1.25063 391.382 4.22833 391.63 7.85543L392.736 23.8562C392.929 26.7026 395.126 28.9825 397.959 29.3348C403.486 30.0119 408.764 31.5733 413.649 33.8739C416.205 35.076 419.259 34.2677 420.924 31.9809L430.368 19.0062C432.496 16.0769 431.536 11.9385 428.323 10.2666C424.827 8.44267 421.2 6.88819 417.449 5.59625ZM464.035 71.81L448.296 74.9051C445.505 75.4509 443.515 77.9105 443.515 80.7569C443.515 86.2701 442.631 91.8109 440.987 96.9234C440.123 99.604 441.312 102.526 443.778 103.887L457.824 111.639C460.988 113.387 464.981 111.915 466.238 108.523C469.686 99.2172 471.358 89.386 471.157 79.3337C471.144 78.6843 471.123 78.0348 471.095 77.3923C470.936 73.7583 467.599 71.1122 464.035 71.81ZM460.815 41.591C457.52 35.7807 453.547 30.4679 448.953 25.7008C446.431 23.0893 442.182 23.3104 439.971 26.1913L430.202 38.9104C428.468 41.1696 428.599 44.3338 430.485 46.4686C434.175 50.6346 437.104 55.3049 439.239 60.2585C440.358 62.8562 443.184 64.2656 445.94 63.6577L461.61 60.1894C465.14 59.4088 467.164 55.6642 465.865 52.2858C464.456 48.6103 462.77 45.0454 460.815 41.591Z" fill="#A5A7AA"/>
<path d="M438.223 113.67C435.778 112.254 432.662 112.758 430.803 114.9C422.312 124.676 410.243 131.26 396.646 132.586C394.981 132.752 393.289 132.835 391.575 132.835C389.862 132.835 388.169 132.752 386.504 132.586C377.564 131.716 369.281 128.572 362.241 123.736C359.443 121.816 356.845 119.633 354.482 117.214C348.444 111.052 343.925 103.397 341.542 94.8646C340.644 91.652 340.043 88.3081 339.787 84.8814C339.683 83.5687 339.635 82.2353 339.635 80.895C339.635 73.247 341.293 65.9859 344.278 59.4432C345.687 56.3412 347.394 53.405 349.363 50.6691C354.786 43.1178 362.178 37.0726 370.787 33.3004C372.701 32.4644 374.67 31.0827 375.623 29.473C376.328 28.2847 380.148 19.7661 380.148 19.7661C381.986 16.1321 382.49 11.7243 377.481 10.1077L367.153 6.78451C365.73 6.18344 364.134 6.15583 362.69 6.71544C361.992 6.99179 361.287 7.27504 360.596 7.5652C351.117 11.5723 342.606 17.3135 335.303 24.6161C331.552 28.3676 328.215 32.4299 325.32 36.7824C323.448 39.5943 321.755 42.5236 320.249 45.5635C319.544 46.9867 318.881 48.4376 318.259 49.9091C314.107 59.7334 312 70.1587 312 80.895C312 83.8519 312.159 86.7882 312.477 89.6968C312.843 93.0683 313.43 96.3983 314.225 99.68C315.233 103.832 316.574 107.901 318.252 111.874C322.26 121.353 328.001 129.864 335.303 137.167C335.745 137.609 336.195 138.044 336.644 138.473C339.103 140.822 341.694 142.998 344.402 144.995C349.404 148.684 354.821 151.772 360.596 154.211C368.866 157.707 377.564 159.752 386.511 160.311C388.19 160.415 389.883 160.47 391.582 160.47C393.282 160.47 394.974 160.415 396.653 160.311C405.607 159.752 414.298 157.707 422.568 154.211C432.047 150.204 440.559 144.463 447.861 137.16C449.982 135.039 451.972 132.815 453.823 130.5C456.076 127.674 455.267 123.501 452.138 121.698L438.223 113.67Z" fill="#0058A0"/>
<path d="M2.79022 144.75C3.53022 144.75 4.15023 145.01 4.64023 145.53C5.13023 146.05 5.38022 146.65 5.38022 147.31C5.38022 147.99 5.15022 148.59 4.69022 149.12C4.23022 149.64 3.60022 149.9 2.79022 149.9C1.97022 149.9 1.34023 149.64 0.890228 149.12C0.440228 148.6 0.220215 148 0.220215 147.31C0.220215 146.61 0.450217 146.01 0.910217 145.5C1.37022 145 2.00022 144.75 2.79022 144.75ZM0.630219 123.3H5.0202V142.75H0.630219V123.3Z" fill="#838484"/>
<path d="M15.2803 148.57C15.7803 147.77 16.1103 147.05 16.2803 146.41C16.4503 145.77 16.5303 145.11 16.5303 144.43C16.5303 141.81 15.3503 139.77 12.9903 138.32L15.1903 134.46C16.9903 135.64 18.3903 137.06 19.3803 138.72C20.3703 140.38 20.8703 142.14 20.8703 144C20.8703 145.15 20.7303 146.26 20.4503 147.33C20.1703 148.4 19.6403 149.58 18.8703 150.89L14.3003 158.62L10.5703 156.48L15.2803 148.57ZM14.9603 132.32C14.1703 132.32 13.5403 132.06 13.0603 131.53C12.5803 131 12.3403 130.39 12.3403 129.71C12.3403 128.97 12.6003 128.35 13.1203 127.86C13.6403 127.37 14.2503 127.12 14.9503 127.12C15.6303 127.12 16.2303 127.37 16.7603 127.86C17.2803 128.35 17.5403 128.97 17.5403 129.71C17.5403 130.42 17.2903 131.04 16.8003 131.55C16.3203 132.07 15.7003 132.32 14.9603 132.32Z" fill="#838484"/>
<path d="M24.21 123.3H28.6V149.72H24.21V123.3Z" fill="#838484"/>
<path d="M31.8804 134.55H39.1304C40.2504 134.55 41.2804 134.75 42.2104 135.16C43.1404 135.57 43.9404 136.11 44.6104 136.8C45.2804 137.48 45.7904 138.29 46.1704 139.22C46.5404 140.15 46.7304 141.14 46.7304 142.18C46.7304 143.3 46.5304 144.32 46.1304 145.24C45.7304 146.16 45.1804 146.95 44.4804 147.61C43.7804 148.28 42.9804 148.8 42.0804 149.17C41.1804 149.54 40.2204 149.73 39.2104 149.73H31.8904V145.41H39.0504C40.0204 145.41 40.8204 145.12 41.4604 144.55C42.1004 143.97 42.4104 143.19 42.4104 142.19C42.4104 141.83 42.3504 141.45 42.2204 141.05C42.0904 140.66 41.8904 140.3 41.6204 139.99C41.3504 139.68 41.0004 139.43 40.5704 139.23C40.1404 139.03 39.6404 138.93 39.0504 138.93H31.8904V134.55H31.8804Z" fill="#838484"/>
<path d="M49.9702 148.39C50.4702 147.57 50.8002 146.85 50.9702 146.21C51.1402 145.57 51.2202 144.91 51.2202 144.23C51.2202 141.62 50.0402 139.59 47.6802 138.14L49.8802 134.28C51.6802 135.46 53.0803 136.88 54.0703 138.54C55.0603 140.2 55.5602 141.96 55.5602 143.82C55.5602 144.09 55.5602 144.36 55.5602 144.63C55.5602 144.9 55.5302 145.16 55.4702 145.41H57.7903V149.73H54.0602C54.0002 149.88 53.9202 150.04 53.8302 150.22C53.7402 150.4 53.6502 150.56 53.5602 150.71L48.9902 158.44L45.2603 156.3L49.9702 148.39Z" fill="#838484"/>
<path d="M57.8104 149.73C57.2504 149.73 56.8404 149.51 56.5704 149.06C56.3104 148.61 56.1704 148.13 56.1704 147.59C56.1704 147.06 56.3004 146.56 56.5704 146.1C56.8404 145.64 57.2504 145.41 57.8104 145.41H69.4404V149.73H57.8104Z" fill="#838484"/>
<path d="M70.3702 156.43C69.5702 156.43 68.9302 156.16 68.4602 155.61C67.9902 155.06 67.7603 154.48 67.7603 153.86C67.7603 153.15 68.0202 152.53 68.5302 152.01C69.0402 151.49 69.6602 151.23 70.3702 151.23C70.9902 151.23 71.5702 151.47 72.1202 151.95C72.6702 152.43 72.9402 153.07 72.9402 153.87C72.9402 154.55 72.7002 155.15 72.2402 155.67C71.7702 156.17 71.1402 156.43 70.3702 156.43ZM69.4402 149.73C68.9102 149.73 68.5102 149.51 68.2202 149.06C67.9402 148.61 67.8002 148.13 67.8002 147.59C67.8002 147.06 67.9402 146.58 68.2202 146.15C68.5002 145.72 68.9102 145.47 69.4402 145.41C70.2102 145.3 70.9102 144.95 71.5302 144.35C72.1502 143.75 72.4602 143 72.4602 142.09V134.27H76.8203V142.09C76.8203 143.3 76.5802 144.41 76.0902 145.41H80.7202V149.73H74.5902V147.46C73.8502 148.23 73.0302 148.8 72.1202 149.18C71.2302 149.54 70.3302 149.73 69.4402 149.73ZM73.2102 161.27C72.3802 161.27 71.7303 161 71.2603 160.48C70.7903 159.95 70.5602 159.36 70.5602 158.71C70.5602 157.97 70.8202 157.34 71.3302 156.84C71.8402 156.33 72.4702 156.08 73.2202 156.08C73.8102 156.08 74.3903 156.33 74.9503 156.84C75.5103 157.35 75.7903 157.97 75.7903 158.71C75.7903 159.36 75.5403 159.95 75.0403 160.48C74.5303 161 73.9202 161.27 73.2102 161.27ZM76.0103 156.43C75.1803 156.43 74.5302 156.16 74.0602 155.64C73.5902 155.11 73.3602 154.52 73.3602 153.87C73.3602 153.13 73.6202 152.5 74.1302 152C74.6402 151.49 75.2702 151.24 76.0202 151.24C76.6102 151.24 77.1902 151.49 77.7502 152C78.3102 152.51 78.5902 153.13 78.5902 153.87C78.5902 154.52 78.3402 155.11 77.8402 155.64C77.3202 156.16 76.7203 156.43 76.0103 156.43Z" fill="#838484"/>
<path d="M80.7301 145.41C81.5001 145.3 82.2001 144.95 82.8201 144.35C83.4401 143.75 83.7501 143 83.7501 142.09V134.27H88.0701V142.09C88.0701 143.24 87.8501 144.28 87.4201 145.21C86.9901 146.14 86.4201 146.94 85.7301 147.61C85.0301 148.28 84.2401 148.8 83.3601 149.17C82.4701 149.54 81.6001 149.73 80.7401 149.73C80.2101 149.73 79.8101 149.51 79.5201 149.06C79.2401 148.61 79.1001 148.13 79.1001 147.59C79.1001 147.06 79.2401 146.58 79.5201 146.15C79.8001 145.72 80.2001 145.47 80.7301 145.41ZM84.9801 157.04C84.3001 157.04 83.6901 156.8 83.1601 156.31C82.6301 155.83 82.3601 155.2 82.3601 154.42C82.3601 153.68 82.6201 153.06 83.1301 152.56C83.6401 152.06 84.2601 151.81 84.9701 151.81C85.6801 151.81 86.3001 152.07 86.8101 152.58C87.3201 153.09 87.5801 153.71 87.5801 154.42C87.5801 155.16 87.3201 155.78 86.8101 156.28C86.3101 156.79 85.6901 157.04 84.9801 157.04Z" fill="#838484"/>
<path d="M94.1602 117.35H100.82V118.69H94.1602V117.35ZM94.1602 120.1H100.82V121.44H94.1602V120.1Z" fill="#838484"/>
<path d="M96.9404 123.3H101.33V149.72H96.9404V123.3Z" fill="#838484"/>
<path d="M104.57 145.41H111.73C112.82 145.41 113.65 145.08 114.23 144.43C114.81 143.78 115.09 143.03 115.09 142.18C115.09 141.82 115.03 141.44 114.9 141.04C114.77 140.65 114.57 140.29 114.3 139.98C114.03 139.67 113.68 139.42 113.25 139.22C112.83 139.02 112.32 138.92 111.73 138.92H104.57V134.54H111.82C112.94 134.54 113.97 134.74 114.9 135.15C115.83 135.56 116.63 136.1 117.3 136.79C117.97 137.47 118.48 138.28 118.86 139.21C119.23 140.14 119.42 141.13 119.42 142.17C119.42 143.38 119.19 144.46 118.74 145.4H121.38V149.72H104.59V145.41H104.57Z" fill="#838484"/>
<path d="M121.38 149.73C120.82 149.73 120.41 149.51 120.14 149.06C119.88 148.61 119.74 148.13 119.74 147.59C119.74 147.06 119.87 146.56 120.14 146.1C120.41 145.64 120.82 145.41 121.38 145.41H124.86C124.62 144.91 124.42 144.36 124.28 143.77C124.14 143.18 124.06 142.59 124.06 142C124.06 140.79 124.27 139.72 124.7 138.78C125.12 137.85 125.68 137.07 126.38 136.45C127.08 135.83 127.87 135.36 128.75 135.05C129.64 134.74 130.54 134.58 131.47 134.58C132.62 134.58 133.75 134.82 134.84 135.31C135.94 135.79 136.91 136.58 137.76 137.67L134.62 140.74C133.91 139.56 132.82 138.97 131.37 138.97C130.57 138.97 129.88 139.25 129.3 139.81C128.72 140.37 128.44 141.11 128.44 142.04C128.44 142.93 128.72 143.72 129.28 144.39C129.84 145.06 130.66 145.4 131.73 145.4H140.95V149.72H121.38V149.73Z" fill="#838484"/>
<path d="M140.97 145.41C141.74 145.3 142.44 144.95 143.06 144.35C143.68 143.75 143.99 143 143.99 142.09V134.27H148.31V142.09C148.31 143.24 148.09 144.28 147.66 145.21C147.23 146.14 146.66 146.94 145.97 147.61C145.27 148.28 144.48 148.8 143.6 149.17C142.71 149.54 141.84 149.73 140.98 149.73C140.45 149.73 140.05 149.51 139.76 149.06C139.48 148.61 139.34 148.13 139.34 147.59C139.34 147.06 139.48 146.58 139.76 146.15C140.03 145.72 140.44 145.47 140.97 145.41ZM145.22 157.04C144.54 157.04 143.93 156.8 143.4 156.31C142.87 155.83 142.6 155.2 142.6 154.42C142.6 153.68 142.86 153.06 143.37 152.56C143.88 152.06 144.5 151.81 145.21 151.81C145.92 151.81 146.53 152.07 147.05 152.58C147.56 153.09 147.82 153.71 147.82 154.42C147.82 155.16 147.56 155.78 147.05 156.28C146.54 156.79 145.93 157.04 145.22 157.04Z" fill="#838484"/>
<path d="M156.83 149.73V149.5C156.83 148.08 157.02 146.67 157.39 145.28C157.76 143.89 158.3 142.52 159.01 141.16H162.19C161.54 143.27 161.21 145.39 161.21 147.54C161.21 147.9 161.21 148.26 161.21 148.62C161.21 148.98 161.24 149.34 161.3 149.72H156.83V149.73Z" fill="#0058A0"/>
<path d="M169.8 148.39C170.3 147.57 170.63 146.85 170.8 146.21C170.97 145.57 171.05 144.91 171.05 144.23C171.05 141.62 169.87 139.59 167.51 138.14L169.71 134.28C171.51 135.46 172.91 136.88 173.9 138.54C174.89 140.2 175.39 141.96 175.39 143.82C175.39 144.09 175.39 144.36 175.39 144.63C175.39 144.9 175.36 145.16 175.3 145.41H177.62V149.73H173.89C173.83 149.88 173.75 150.04 173.66 150.22C173.57 150.4 173.48 150.56 173.39 150.71L168.82 158.44L165.09 156.3L169.8 148.39Z" fill="#0058A0"/>
<path d="M177.64 149.73C177.08 149.73 176.67 149.51 176.4 149.06C176.14 148.61 176 148.13 176 147.59C176 147.06 176.13 146.56 176.4 146.1C176.67 145.64 177.08 145.41 177.64 145.41H189.27V149.73H177.64Z" fill="#0058A0"/>
<path d="M189.28 149.73C188.75 149.73 188.35 149.51 188.06 149.06C187.78 148.61 187.64 148.13 187.64 147.59C187.64 147.06 187.78 146.56 188.06 146.1C188.34 145.64 188.75 145.41 189.28 145.41H203.5L202.25 142.84C201.66 141.66 200.95 140.71 200.11 140C199.28 139.29 198.36 138.93 197.36 138.93C196.71 138.93 196.15 139.07 195.69 139.35C195.23 139.63 194.78 140.14 194.34 140.88L190.52 138.7C191.47 137.2 192.51 136.12 193.63 135.45C194.75 134.78 196.11 134.45 197.72 134.45C198.96 134.45 200.03 134.65 200.94 135.06C201.84 135.47 202.65 136.05 203.36 136.79C204.07 137.53 204.73 138.44 205.34 139.5C205.95 140.57 206.56 141.75 207.18 143.06C207.62 143.97 208.06 144.59 208.49 144.91C208.92 145.24 209.4 145.4 209.93 145.4V149.72H189.28V149.73ZM197.59 127.12C198.3 127.12 198.91 127.38 199.41 127.9C199.91 128.42 200.16 129.01 200.16 129.66C200.16 130.4 199.88 131.03 199.32 131.55C198.76 132.06 198.18 132.32 197.59 132.32C196.85 132.32 196.22 132.06 195.72 131.55C195.21 131.04 194.96 130.41 194.96 129.66C194.96 129.01 195.19 128.42 195.65 127.9C196.11 127.38 196.76 127.12 197.59 127.12Z" fill="#0058A0"/>
<path d="M209.93 145.41C210.7 145.3 211.4 144.95 212.02 144.35C212.64 143.75 212.95 143 212.95 142.09V134.27H217.27V142.09C217.27 143.24 217.05 144.28 216.62 145.21C216.19 146.14 215.62 146.94 214.93 147.61C214.23 148.28 213.44 148.8 212.56 149.17C211.67 149.54 210.8 149.73 209.94 149.73C209.41 149.73 209.01 149.51 208.72 149.06C208.44 148.61 208.3 148.13 208.3 147.59C208.3 147.06 208.44 146.58 208.72 146.15C208.99 145.72 209.4 145.47 209.93 145.41ZM214.18 157.04C213.5 157.04 212.89 156.8 212.36 156.31C211.83 155.83 211.56 155.2 211.56 154.42C211.56 153.68 211.82 153.06 212.33 152.56C212.84 152.06 213.46 151.81 214.17 151.81C214.88 151.81 215.49 152.07 216.01 152.58C216.52 153.09 216.78 153.71 216.78 154.42C216.78 155.16 216.52 155.78 216.01 156.28C215.5 156.79 214.89 157.04 214.18 157.04Z" fill="#0058A0"/>
<path d="M249.1 145.02C249.1 146.58 248.86 148.07 248.38 149.5C247.9 150.92 247.19 152.19 246.24 153.31C245.29 154.42 244.09 155.31 242.63 155.98C241.17 156.65 239.46 156.98 237.51 156.98C236.36 156.98 235.14 156.76 233.85 156.33C232.56 155.9 231.38 155.23 230.32 154.33C229.25 153.43 228.37 152.28 227.67 150.89C226.97 149.5 226.62 147.84 226.62 145.91C226.62 144.43 226.87 143.02 227.37 141.68C227.87 140.35 228.6 139.17 229.56 138.14C230.52 137.11 231.69 136.28 233.07 135.64C234.45 135 236 134.64 237.73 134.55V138.89C236.81 138.95 235.93 139.16 235.11 139.52C234.28 139.88 233.57 140.36 232.97 140.96C232.37 141.57 231.9 142.3 231.56 143.15C231.22 144.01 231.05 144.96 231.05 146C231.05 147.09 231.23 148.05 231.58 148.89C231.94 149.72 232.43 150.42 233.07 150.98C233.71 151.54 234.43 151.97 235.25 152.26C236.07 152.56 236.95 152.7 237.89 152.7C238.78 152.7 239.64 152.53 240.47 152.19C241.3 151.85 242.03 151.35 242.66 150.68C243.3 150.01 243.8 149.21 244.17 148.26C244.54 147.31 244.73 146.23 244.73 145.02V134.36H249.09V145.02H249.1ZM237.74 148.05C237 148.05 236.39 147.8 235.91 147.29C235.43 146.78 235.19 146.17 235.19 145.46C235.19 144.73 235.43 144.12 235.91 143.61C236.39 143.1 237 142.85 237.74 142.85C238.53 142.85 239.16 143.1 239.64 143.61C240.12 144.12 240.36 144.73 240.36 145.46C240.36 146.17 240.11 146.78 239.6 147.29C239.09 147.79 238.47 148.05 237.74 148.05Z" fill="#0058A0"/>
<path d="M260.33 144.32C260.91 143.64 261.19 142.9 261.19 142.09V123.3H265.58V142.09C265.58 143.18 265.37 144.18 264.96 145.1C264.54 146.02 263.99 146.82 263.29 147.52C262.59 148.22 261.79 148.76 260.87 149.15C259.95 149.54 258.98 149.73 257.95 149.73H251.52V145.41H256.09L250.09 128.41L254.27 127.25L260.33 144.32Z" fill="#0058A0"/>
<path d="M268.96 123.3H273.35V149.72H268.96V123.3Z" fill="#0058A0"/>
<path d="M13.4004 71.2199C14.7304 79.8599 19.3504 84.2899 27.2604 84.5399V97.4H25.7204C15.6304 97.46 7.69036 91.66 1.90036 80.01C0.87036 77.41 0.360352 74.8199 0.360352 72.2199V23.22C0.540352 16.1 4.89036 10.93 13.4004 7.72998V71.2199Z" fill="#0058A0"/>
<path d="M23.8105 84.5301H29.0605V7.17004H42.1906V45.21C46.7206 43.58 49.4105 42.67 50.2505 42.49L53.8705 42.04H73.5305C83.1905 42.04 90.8606 47.69 96.5406 58.98C97.5706 61.7 98.0805 64.2 98.0805 66.5V84.5301H103.611L103.521 97.39H23.8105V84.5301V84.5301ZM85.4106 84.5301V67.6C83.8406 59.33 79.8806 55.19 73.5406 55.19H54.0706C47.7906 55.19 43.8606 59.33 42.2906 67.6V84.54H85.4106V84.5301Z" fill="#0058A0"/>
<path d="M201.721 88.79C197.611 91.99 194.051 94.35 191.031 95.85C188.431 96.88 185.841 97.39 183.241 97.39H179.071C174.181 97.39 168.411 94.88 161.771 89.87H160.231C153.471 94.88 147.671 97.39 142.841 97.39H138.671C132.571 97.39 126.411 94.49 120.191 88.69C113.791 94.49 107.781 97.39 102.161 97.39H99.8105V84.53H100.811C109.261 84.47 113.491 78.7 113.491 67.23V41.5H126.711V71.3C126.711 77.88 131.121 82.2 139.931 84.25C149.231 82.56 153.881 77.94 153.881 70.39V41.49H167.561V68.03C167.561 77.09 171.421 82.31 179.151 83.7H182.591C190.981 82.43 195.181 77.51 195.181 68.94V41.49H208.401V70.2C209.181 79.68 212.571 84.45 218.551 84.51V97.37C213.671 97.4 208.061 94.53 201.721 88.79Z" fill="#0058A0"/>
<path d="M221.64 71.58V50.93C221.64 41.51 227.35 34.02 238.76 28.47L245.19 27.29H248.9C258.44 27.29 265.99 32.85 271.54 43.96C272.51 46.44 272.99 48.91 272.99 51.39V77.84C272.99 85.09 266.86 91.34 254.6 96.59L249.53 97.41H215.65V84.55L248.44 84.46C256.83 84.52 261.03 81.56 261.03 75.58V71.5L221.64 71.58ZM232.83 22.96C229.74 22.96 227.1 21.87 224.92 19.68C222.73 17.5 221.64 14.86 221.64 11.77C221.64 8.78999 222.73 6.19999 224.92 4.01999C227.1 1.83999 229.74 0.73999 232.83 0.73999C235.92 0.73999 238.56 1.82999 240.74 4.01999C242.92 6.20999 244.02 8.78999 244.02 11.77C244.02 14.86 242.93 17.5 240.74 19.68C238.56 21.86 235.92 22.96 232.83 22.96ZM234.05 60.44H261.04V53.65C261.04 44.65 256.84 40.15 248.45 40.15H246.64C239.51 40.15 235.32 44.56 234.05 53.37V60.44ZM259.5 22.96C256.41 22.96 253.77 21.87 251.59 19.68C249.4 17.5 248.31 14.86 248.31 11.77C248.31 8.67999 249.4 6.07 251.59 3.94C253.77 1.81 256.41 0.73999 259.5 0.73999C262.59 0.73999 265.23 1.81 267.41 3.94C269.59 6.07 270.69 8.67999 270.69 11.77C270.69 14.86 269.6 17.5 267.41 19.68C265.23 21.86 262.59 22.96 259.5 22.96Z" fill="#0058A0"/>
</svg>
